<?xml version="1.0" encoding="utf-8"?>
<!-- Generator: Adobe Illustrator 26.0.1, SVG Export Plug-In . SVG Version: 6.00 Build 0)  -->
<svg version="1.1" xmlns="http://www.w3.org/2000/svg" xmlns:xlink="http://www.w3.org/1999/xlink" x="0px" y="0px"
	 viewBox="0 0 48 48" style="enable-background:new 0 0 48 48;" xml:space="preserve">
<style type="text/css">
	.st0{fill:url(#SVGID_1_);}
	.st1{fill:url(#SVGID_00000126281728896474982990000012463031220352813964_);}
	.st2{fill:url(#SVGID_00000173118629172920245700000017295586631685405862_);}
	.st3{fill:url(#SVGID_00000180367357098783147110000005174372035163888051_);}
	.st4{fill:url(#SVGID_00000036938243254809462180000001220555789122701983_);}
	.st5{fill:url(#SVGID_00000053509651487626079910000017171635018156088704_);}
	.st6{fill:#FFFFFF;}
	.st7{fill:url(#SVGID_00000005248004906463520820000012866962993574194829_);}
	.st8{fill:url(#SVGID_00000000199812973012846680000014593342519702817179_);}
	.st9{fill:url(#SVGID_00000164478074580958634640000008740715835881198471_);}
	.st10{fill:url(#SVGID_00000121278922397536076240000011791025737177424552_);}
	.st11{fill:url(#SVGID_00000026153744373281592610000004720125971602070701_);}
	.st12{fill:url(#SVGID_00000170966912045699528730000003947727596185688464_);}
	.st13{fill:url(#SVGID_00000125585822509500454040000007344554543771347646_);}
	.st14{fill:url(#SVGID_00000029029145698004049020000012820041926198487981_);}
	.st15{fill:url(#SVGID_00000017510964038577702360000007873675808484780459_);}
	.st16{fill:url(#SVGID_00000001652901744447873700000009054791009838689672_);}
	.st17{fill:url(#SVGID_00000148662338973678613380000004691620993007040926_);}
	.st18{fill:url(#SVGID_00000096061756984230075810000013839976756859159175_);}
	.st19{fill:url(#SVGID_00000078747558933787030190000003938494265689090453_);}
	.st20{fill:url(#SVGID_00000176029409616197546790000002878918638125226134_);}
	.st21{fill:url(#SVGID_00000142869244969693177810000004675540643578245251_);}
	.st22{fill:url(#SVGID_00000026865022977870367940000005579654128223984029_);}
	.st23{fill:url(#SVGID_00000165218633335612685690000000570106810784154533_);}
	.st24{fill:url(#SVGID_00000154390105661644357080000013544995562943464635_);}
	.st25{fill:url(#SVGID_00000003794923249058194790000006122862822976627637_);}
	.st26{fill:url(#SVGID_00000046304831764417163060000007397650826922881944_);}
	.st27{fill:url(#SVGID_00000115490311872618094610000000547664655827430032_);}
	.st28{fill:url(#SVGID_00000046339523886687407040000016905016249977342085_);}
	.st29{fill:url(#SVGID_00000023242854145913944660000015101115365391419533_);}
	.st30{fill:url(#SVGID_00000003788701251698236280000000688807865468026041_);}
	.st31{fill:url(#SVGID_00000098216732242929367240000005717482670481878428_);}
	.st32{fill:url(#SVGID_00000034800015313417620040000014637907856833634997_);}
	.st33{fill:url(#SVGID_00000115475324388527206740000001455050285665071778_);}
	.st34{fill:url(#SVGID_00000023969629642284003450000000795435193928681865_);}
	.st35{fill:url(#SVGID_00000003784090432898879210000003508276651225692318_);}
	.st36{fill:url(#SVGID_00000048461019192840418110000010643398424510714512_);}
	.st37{fill:url(#SVGID_00000108304607787995658840000017264846225188396967_);}
	.st38{fill:url(#SVGID_00000119110344497808909110000001623725430996230024_);}
	.st39{fill:url(#SVGID_00000182493457396046205210000009868144044084961679_);}
	.st40{fill:url(#SVGID_00000158029394461872326360000014499038796247285131_);}
	.st41{fill:url(#SVGID_00000057129621636140409800000015459774840541524634_);}
	.st42{fill:url(#SVGID_00000055691476705147417530000005926126144778152611_);}
	.st43{fill:url(#SVGID_00000125592515952973950590000003669846143870996638_);}
	.st44{fill:url(#SVGID_00000155148251502092421550000015394207142273288589_);}
</style>
<g id="Mocking">
</g>
<g id="Smiling_eyes">
</g>
<g id="Dissapointed">
</g>
<g id="Cool">
</g>
<g id="Snoring">
</g>
<g id="Kissing_Face">
</g>
<g id="Heart_Eyes">
	<g>
		<linearGradient id="SVGID_1_" gradientUnits="userSpaceOnUse" x1="7.8151" y1="4.7559" x2="41.4401" y2="42.6309">
			<stop  offset="0" style="stop-color:#FFCA4F"/>
			<stop  offset="1" style="stop-color:#F7AE30"/>
		</linearGradient>
		<circle class="st0" cx="24.11" cy="23.11" r="22"/>
		
			<linearGradient id="SVGID_00000131349549291432937990000002757244826612922005_" gradientUnits="userSpaceOnUse" x1="24.5573" y1="23.5503" x2="39.6801" y2="38.4211">
			<stop  offset="0" style="stop-color:#FFCA4F;stop-opacity:0"/>
			<stop  offset="1" style="stop-color:#F4901F"/>
		</linearGradient>
		<path style="fill:url(#SVGID_00000131349549291432937990000002757244826612922005_);" d="M8.56,38.66
			c3.98,3.98,9.48,6.45,15.55,6.45c12.13,0,22-9.87,22-22c0-6.07-2.47-11.57-6.45-15.55L8.56,38.66z"/>
		
			<linearGradient id="SVGID_00000106145354104514573150000012860076686929174948_" gradientUnits="userSpaceOnUse" x1="24.1047" y1="28.0449" x2="24.1047" y2="40.4838">
			<stop  offset="0" style="stop-color:#F7AE30"/>
			<stop  offset="1" style="stop-color:#FFCA4F;stop-opacity:0"/>
		</linearGradient>
		<path style="fill:url(#SVGID_00000106145354104514573150000012860076686929174948_);" d="M24.11,40.11c-7.17,0-13-4.89-13-10.91
			l0.01-0.13l0.08-0.91l0.92-0.05H37.1v1C37.11,35.21,31.28,40.11,24.11,40.11z"/>
		
			<linearGradient id="SVGID_00000056429264631983871480000014229876094056333989_" gradientUnits="userSpaceOnUse" x1="8.9375" y1="7.6956" x2="19.57" y2="18.4979">
			<stop  offset="0" style="stop-color:#FFD980"/>
			<stop  offset="1" style="stop-color:#FFCA4F;stop-opacity:0"/>
		</linearGradient>
		<path style="fill:url(#SVGID_00000056429264631983871480000014229876094056333989_);" d="M14.11,33.11c0-11.03,8.97-20,20-20
			c2.93,0,5.71,0.65,8.21,1.79C39.18,7.95,32.21,3.11,24.11,3.11c-11.03,0-20,8.97-20,20c0,8.1,4.85,15.07,11.79,18.21
			C14.76,38.81,14.11,36.04,14.11,33.11z"/>
		
			<linearGradient id="SVGID_00000118386357300440583260000001275109254163899054_" gradientUnits="userSpaceOnUse" x1="29.0866" y1="10.3841" x2="38.588" y2="23.1263">
			<stop  offset="0" style="stop-color:#F7AE30"/>
			<stop  offset="1" style="stop-color:#FFCA4F;stop-opacity:0"/>
		</linearGradient>
		<path style="fill:url(#SVGID_00000118386357300440583260000001275109254163899054_);" d="M33.11,24.11
			c-0.57,0-1.12-0.24-1.51-0.65l-4.11-4.29c-1.7-1.77-1.85-4.51-0.36-6.36c0.87-1.08,2.14-1.7,3.49-1.7c0.88,0,1.76,0.27,2.49,0.77
			c0.73-0.5,1.61-0.77,2.49-0.77c1.35,0,2.62,0.62,3.49,1.7c1.49,1.86,1.33,4.59-0.36,6.36l-4.11,4.29
			C34.23,23.87,33.68,24.11,33.11,24.11z"/>
		
			<linearGradient id="SVGID_00000168074630582670464960000011301772429505426054_" gradientUnits="userSpaceOnUse" x1="11.0728" y1="11.4344" x2="21.4188" y2="22.5933">
			<stop  offset="0" style="stop-color:#F7AE30"/>
			<stop  offset="1" style="stop-color:#FFCA4F;stop-opacity:0"/>
		</linearGradient>
		<path style="fill:url(#SVGID_00000168074630582670464960000011301772429505426054_);" d="M15.11,24.11
			c-0.57,0-1.12-0.24-1.51-0.65l-4.11-4.29c-1.7-1.77-1.85-4.51-0.36-6.36c0.87-1.08,2.14-1.7,3.49-1.7c0.88,0,1.76,0.27,2.49,0.77
			c0.73-0.5,1.61-0.77,2.49-0.77c1.35,0,2.62,0.62,3.49,1.7c1.49,1.86,1.33,4.59-0.36,6.36l-4.11,4.29
			C16.23,23.87,15.68,24.11,15.11,24.11z"/>
		<path class="st6" d="M12.11,29.11c0,0.03-0.01,0.06-0.01,0.09c0,5.47,5.37,9.91,12,9.91s12-4.44,12-9.91
			c0-0.03-0.01-0.06-0.01-0.09H12.11z"/>
		
			<linearGradient id="SVGID_00000039812239921821380000000003541426997375370385_" gradientUnits="userSpaceOnUse" x1="29.7403" y1="11.2605" x2="37.8028" y2="22.073">
			<stop  offset="0" style="stop-color:#FF4343"/>
			<stop  offset="1" style="stop-color:#E40000"/>
		</linearGradient>
		<path style="fill:url(#SVGID_00000039812239921821380000000003541426997375370385_);" d="M32.76,12.87
			c-1.46-1.17-3.61-0.98-4.85,0.57c-1.19,1.49-1.01,3.67,0.31,5.05l4.11,4.29c0.43,0.45,1.15,0.45,1.58,0L38,18.48
			c1.32-1.38,1.5-3.56,0.31-5.05c-1.24-1.55-3.39-1.74-4.85-0.57C33.25,13.03,32.96,13.03,32.76,12.87z"/>
		
			<linearGradient id="SVGID_00000039854771910084080700000009137646156025955762_" gradientUnits="userSpaceOnUse" x1="11.7138" y1="12.1258" x2="20.4638" y2="21.5633">
			<stop  offset="0" style="stop-color:#FF4343"/>
			<stop  offset="1" style="stop-color:#E40000"/>
		</linearGradient>
		<path style="fill:url(#SVGID_00000039854771910084080700000009137646156025955762_);" d="M14.76,12.87
			c-1.46-1.17-3.61-0.98-4.85,0.57c-1.19,1.49-1.01,3.67,0.31,5.05l4.11,4.29c0.43,0.45,1.15,0.45,1.58,0L20,18.48
			c1.32-1.38,1.5-3.56,0.31-5.05c-1.24-1.55-3.39-1.74-4.85-0.57C15.25,13.03,14.96,13.03,14.76,12.87z"/>
	</g>
</g>
<g id="ROFL">
</g>
<g id="Confused">
</g>
<g id="Famous">
</g>
<g id="Puke">
</g>
<g id="Laugh">
</g>
<g id="Dizzy">
</g>
<g id="Anger">
</g>
<g id="Crying">
</g>
<g id="In_Love">
</g>
<g id="Surprised">
</g>
<g id="Wink">
</g>
<g id="Yummy">
</g>
<g id="Happy">
</g>
<g id="Grinning">
</g>
<g id="Flat">
</g>
<g id="Sad">
</g>
<g id="Smile">
</g>
</svg>
