<?xml version="1.0" encoding="utf-8"?>
<!-- Generator: Adobe Illustrator 26.0.1, SVG Export Plug-In . SVG Version: 6.00 Build 0)  -->
<svg version="1.1" xmlns="http://www.w3.org/2000/svg" xmlns:xlink="http://www.w3.org/1999/xlink" x="0px" y="0px"
	 viewBox="0 0 48 48" style="enable-background:new 0 0 48 48;" xml:space="preserve">
<style type="text/css">
	.st0{fill:url(#SVGID_1_);}
	.st1{fill:url(#SVGID_00000010296860083373455210000002949523859884716198_);}
	.st2{fill:url(#SVGID_00000150812220250089403410000007530013224123532700_);}
	.st3{fill:url(#SVGID_00000042725084304412442270000014500449786124075176_);}
	.st4{fill:url(#SVGID_00000016064388916803181930000009670867495911850394_);}
	.st5{fill:url(#SVGID_00000023247217580601664710000006515963635203440005_);}
	.st6{fill:#FFFFFF;}
	.st7{fill:url(#SVGID_00000084505214519717094080000016192434715955370930_);}
	.st8{fill:url(#SVGID_00000033350273192837548180000006021027007693177238_);}
	.st9{fill:url(#SVGID_00000110456377199416170410000002664070831059929509_);}
	.st10{fill:url(#SVGID_00000015317086206203007560000012526897331673165697_);}
	.st11{fill:url(#SVGID_00000134940860504044722200000013129192882956994454_);}
	.st12{fill:url(#SVGID_00000002360346018858946430000011783425155099715713_);}
	.st13{fill:url(#SVGID_00000027585008705243347990000017990935652906548368_);}
	.st14{fill:url(#SVGID_00000058562058061149431490000017021606742228451991_);}
	.st15{fill:url(#SVGID_00000166669235861122777320000005308191006745142447_);}
	.st16{fill:url(#SVGID_00000058560319868862157610000018007097298721754019_);}
	.st17{fill:url(#SVGID_00000134937081440238528610000014247080757713820058_);}
	.st18{fill:url(#SVGID_00000168117127629678021490000008509571724522308282_);}
	.st19{fill:url(#SVGID_00000096049641238942579760000016766322696595019432_);}
	.st20{fill:url(#SVGID_00000040540153931756163110000017813656278671587487_);}
	.st21{fill:url(#SVGID_00000042018183943340240490000000834888376154617499_);}
	.st22{fill:url(#SVGID_00000101811878875543884470000015451109278219742117_);}
	.st23{fill:url(#SVGID_00000075840839589248805120000006366424395956815244_);}
	.st24{fill:url(#SVGID_00000085233221154482757210000011299302536625053118_);}
	.st25{fill:url(#SVGID_00000085230382287166001940000010660982616488895397_);}
	.st26{fill:url(#SVGID_00000049206566210725538680000012980642927054801575_);}
	.st27{fill:url(#SVGID_00000148633768585938498490000017107938974881654433_);}
	.st28{fill:url(#SVGID_00000155148096462323661770000006533144522124738981_);}
	.st29{fill:url(#SVGID_00000078761018907594125980000000800164715880687774_);}
	.st30{fill:url(#SVGID_00000106843061472745987190000003216349154040759720_);}
	.st31{fill:url(#SVGID_00000154386139376944936040000001383614449565738681_);}
	.st32{fill:url(#SVGID_00000143607536852646446610000016206372529338826904_);}
	.st33{fill:url(#SVGID_00000002368059788594618040000008517581519821828516_);}
	.st34{fill:url(#SVGID_00000075870759726232168000000010954115384739584948_);}
	.st35{fill:url(#SVGID_00000155137144990689349940000018189267153017160358_);}
	.st36{fill:url(#SVGID_00000111885234908414150080000003851271316398020008_);}
	.st37{fill:url(#SVGID_00000101792021731304974500000007232167168770148276_);}
	.st38{fill:url(#SVGID_00000040553476271874452810000015612049184847009955_);}
	.st39{fill:url(#SVGID_00000047021877495038882250000004740780606082581640_);}
	.st40{fill:url(#SVGID_00000067955250336142487180000004165699151477394326_);}
	.st41{fill:url(#SVGID_00000086652708612526493790000000797646297415047601_);}
	.st42{fill:url(#SVGID_00000025439096929734373570000014368314217018704293_);}
	.st43{fill:url(#SVGID_00000062874374037409176540000015920754678566379410_);}
	.st44{fill:url(#SVGID_00000172424179459912224390000010745219973981981869_);}
</style>
<g id="Mocking">
</g>
<g id="Smiling_eyes">
</g>
<g id="Dissapointed">
</g>
<g id="Cool">
</g>
<g id="Snoring">
</g>
<g id="Kissing_Face">
</g>
<g id="Heart_Eyes">
</g>
<g id="ROFL">
</g>
<g id="Confused">
</g>
<g id="Famous">
</g>
<g id="Puke">
</g>
<g id="Laugh">
</g>
<g id="Dizzy">
</g>
<g id="Anger">
</g>
<g id="Crying">
</g>
<g id="In_Love">
</g>
<g id="Surprised">
</g>
<g id="Wink">
</g>
<g id="Yummy">
</g>
<g id="Happy">
</g>
<g id="Grinning">
</g>
<g id="Flat">
</g>
<g id="Sad">
	<g>
		<linearGradient id="SVGID_1_" gradientUnits="userSpaceOnUse" x1="7.7077" y1="5.6485" x2="41.3327" y2="43.5235">
			<stop  offset="0" style="stop-color:#FFCA4F"/>
			<stop  offset="1" style="stop-color:#F7AE30"/>
		</linearGradient>
		<circle class="st0" cx="24" cy="24" r="22"/>
		
			<linearGradient id="SVGID_00000175323421097779980980000000034192566295457179_" gradientUnits="userSpaceOnUse" x1="24.1973" y1="24.1945" x2="39.6018" y2="39.3423">
			<stop  offset="0" style="stop-color:#FFCA4F;stop-opacity:0"/>
			<stop  offset="1" style="stop-color:#F4901F"/>
		</linearGradient>
		<path style="fill:url(#SVGID_00000175323421097779980980000000034192566295457179_);" d="M8.45,39.55C12.43,43.53,17.93,46,24,46
			c12.13,0,22-9.87,22-22c0-6.07-2.47-11.57-6.45-15.55L8.45,39.55z"/>
		
			<linearGradient id="SVGID_00000124151698460792425170000001036755200427697073_" gradientUnits="userSpaceOnUse" x1="8.8301" y1="8.5883" x2="19.4626" y2="19.3905">
			<stop  offset="0" style="stop-color:#FFD980"/>
			<stop  offset="1" style="stop-color:#FFCA4F;stop-opacity:0"/>
		</linearGradient>
		<path style="fill:url(#SVGID_00000124151698460792425170000001036755200427697073_);" d="M14,34c0-11.03,8.97-20,20-20
			c2.93,0,5.71,0.65,8.21,1.79C39.07,8.85,32.1,4,24,4C12.97,4,4,12.97,4,24c0,8.1,4.85,15.07,11.79,18.21
			C14.65,39.71,14,36.93,14,34z"/>
		
			<linearGradient id="SVGID_00000010290584413164680090000015721791054005161622_" gradientUnits="userSpaceOnUse" x1="14.3919" y1="13.9235" x2="18.7211" y2="19.2147">
			<stop  offset="0" style="stop-color:#F7AE30"/>
			<stop  offset="1" style="stop-color:#FFCA4F"/>
		</linearGradient>
		<circle style="fill:url(#SVGID_00000010290584413164680090000015721791054005161622_);" cx="16.5" cy="16.5" r="3.5"/>
		
			<linearGradient id="SVGID_00000088110314423300924820000004522477010071334292_" gradientUnits="userSpaceOnUse" x1="29.3752" y1="14.0103" x2="33.7043" y2="19.0828">
			<stop  offset="0" style="stop-color:#F7AE30"/>
			<stop  offset="1" style="stop-color:#FFCA4F"/>
		</linearGradient>
		<circle style="fill:url(#SVGID_00000088110314423300924820000004522477010071334292_);" cx="31.5" cy="16.5" r="3.5"/>
		
			<linearGradient id="SVGID_00000144296433578152662900000012717774849004275592_" gradientUnits="userSpaceOnUse" x1="14.9935" y1="14.6587" x2="18.0873" y2="18.44">
			<stop  offset="0" style="stop-color:#3F4C56"/>
			<stop  offset="1" style="stop-color:#27333E"/>
		</linearGradient>
		<circle style="fill:url(#SVGID_00000144296433578152662900000012717774849004275592_);" cx="16.5" cy="16.5" r="2.5"/>
		
			<linearGradient id="SVGID_00000141453638183507918530000003683334383723450504_" gradientUnits="userSpaceOnUse" x1="29.9815" y1="14.7208" x2="33.0753" y2="18.3458">
			<stop  offset="0" style="stop-color:#3F4C56"/>
			<stop  offset="1" style="stop-color:#27333E"/>
		</linearGradient>
		<circle style="fill:url(#SVGID_00000141453638183507918530000003683334383723450504_);" cx="31.5" cy="16.5" r="2.5"/>
		
			<linearGradient id="SVGID_00000173844788586484180430000000775825810477570495_" gradientUnits="userSpaceOnUse" x1="-112" y1="166.1875" x2="-112" y2="172.1263" gradientTransform="matrix(-1 0 0 -1 -88 202)">
			<stop  offset="0" style="stop-color:#FFCA4F;stop-opacity:0"/>
			<stop  offset="1" style="stop-color:#F7AE30"/>
		</linearGradient>
		<path style="fill:url(#SVGID_00000173844788586484180430000000775825810477570495_);" d="M24,28c7.91,0,11.45,4.6,11.6,4.8
			c0.32,0.43,0.46,0.95,0.38,1.48c-0.08,0.53-0.35,1-0.78,1.32C34.85,35.86,34.44,36,34,36c-0.63,0-1.21-0.29-1.59-0.79
			C32.31,35.08,29.87,32,24,32c-5.83,0-8.31,3.08-8.41,3.21C15.22,35.7,14.63,36,14,36c-0.44,0-0.85-0.14-1.2-0.4
			c-0.43-0.32-0.7-0.79-0.78-1.32c-0.08-0.53,0.06-1.06,0.38-1.48C12.55,32.6,16.09,28,24,28z"/>
		
			<linearGradient id="SVGID_00000054981707577336780540000016015582621330795683_" gradientUnits="userSpaceOnUse" x1="-112" y1="167.375" x2="-112" y2="173.2901" gradientTransform="matrix(-1 0 0 -1 -88 202)">
			<stop  offset="0" style="stop-color:#27333E"/>
			<stop  offset="1" style="stop-color:#3F4C56"/>
		</linearGradient>
		<path style="fill:url(#SVGID_00000054981707577336780540000016015582621330795683_);" d="M24,29c7.41,0,10.67,4.22,10.8,4.4
			c0.33,0.44,0.24,1.07-0.2,1.4s-1.06,0.24-1.4-0.2C33.08,34.45,30.36,31,24,31c-6.43,0-9.17,3.56-9.2,3.6
			c-0.33,0.44-0.96,0.53-1.4,0.2c-0.44-0.33-0.53-0.96-0.2-1.4C13.33,33.22,16.59,29,24,29z"/>
	</g>
</g>
<g id="Smile">
</g>
</svg>
