<?xml version="1.0" encoding="utf-8"?>
<!-- Generator: Adobe Illustrator 26.0.1, SVG Export Plug-In . SVG Version: 6.00 Build 0)  -->
<svg version="1.1" xmlns="http://www.w3.org/2000/svg" xmlns:xlink="http://www.w3.org/1999/xlink" x="0px" y="0px"
	 viewBox="0 0 48 48" style="enable-background:new 0 0 48 48;" xml:space="preserve">
<style type="text/css">
	.st0{fill:url(#SVGID_1_);}
	.st1{fill:url(#SVGID_00000103237863002124383670000002561826851869261245_);}
	.st2{fill:url(#SVGID_00000046338611896822574060000005003485767671777706_);}
	.st3{fill:url(#SVGID_00000121262554681259896040000018253723908365028748_);}
	.st4{fill:url(#SVGID_00000049216961263177975400000005059843911595802264_);}
	.st5{fill:url(#SVGID_00000085246717225472009050000013754736040869450935_);}
	.st6{fill:#FFFFFF;}
	.st7{fill:url(#SVGID_00000183961651729883299800000000618192541915618433_);}
	.st8{fill:url(#SVGID_00000067215180088732975190000001107628351095630004_);}
	.st9{fill:url(#SVGID_00000138542390477586548210000015991798251095228568_);}
	.st10{fill:url(#SVGID_00000125562190792275786910000005349347705371025338_);}
	.st11{fill:url(#SVGID_00000181075856118821464150000010288389750136402064_);}
	.st12{fill:url(#SVGID_00000041274381246806453080000015884190590066511799_);}
	.st13{fill:url(#SVGID_00000164475602900588659290000014343325673015773619_);}
	.st14{fill:url(#SVGID_00000022537375067810643060000015224113793248675737_);}
	.st15{fill:url(#SVGID_00000036948528315807556730000013580781649961509780_);}
	.st16{fill:url(#SVGID_00000039816016219678792900000015207269538623410818_);}
	.st17{fill:url(#SVGID_00000075881753122751205020000012758015141930949253_);}
	.st18{fill:url(#SVGID_00000096028502770095478670000011044036050087983542_);}
	.st19{fill:url(#SVGID_00000018238276659522967270000013490653084063342476_);}
	.st20{fill:url(#SVGID_00000027599818494185282520000015709286517042059695_);}
	.st21{fill:url(#SVGID_00000183224631129723567300000006498860425912531862_);}
	.st22{fill:url(#SVGID_00000115502722852986129450000000364597235504077960_);}
	.st23{fill:url(#SVGID_00000094598734384017954350000005368061803973554573_);}
	.st24{fill:url(#SVGID_00000130617609993821025490000014854045702393919889_);}
	.st25{fill:url(#SVGID_00000164506996205797541750000003021916280048629144_);}
	.st26{fill:url(#SVGID_00000047052458053499997420000003017330765686595716_);}
	.st27{fill:url(#SVGID_00000181808814719839687340000011276711818178064820_);}
	.st28{fill:url(#SVGID_00000039096316107785394390000016530891758546609572_);}
	.st29{fill:url(#SVGID_00000031911268970419473470000007010585912250672821_);}
	.st30{fill:url(#SVGID_00000006686650063968623330000011803539511622366872_);}
	.st31{fill:url(#SVGID_00000029009717585207778800000003516320330311154852_);}
	.st32{fill:url(#SVGID_00000093874686401085402500000011625911645580985755_);}
	.st33{fill:url(#SVGID_00000167377244784662818610000013432514928041823126_);}
	.st34{fill:url(#SVGID_00000001640372298395637420000002943463268557966770_);}
	.st35{fill:url(#SVGID_00000095331388026529611220000015164900597516489624_);}
	.st36{fill:url(#SVGID_00000158721933654142790600000018377049115719325835_);}
	.st37{fill:url(#SVGID_00000135650708993550344160000018293398086573901454_);}
	.st38{fill:url(#SVGID_00000036971301707433569270000010842534131626307004_);}
	.st39{fill:url(#SVGID_00000112604380382370840870000002477493463549156262_);}
	.st40{fill:url(#SVGID_00000020379695351983272800000000841248722381424010_);}
	.st41{fill:url(#SVGID_00000126324102139665011440000017078846800735506832_);}
	.st42{fill:url(#SVGID_00000133488369407245405340000010157997446658404493_);}
	.st43{fill:url(#SVGID_00000050640936110844402550000014349940332893084815_);}
	.st44{fill:url(#SVGID_00000164498246287452952430000016721208972008998069_);}
</style>
<g id="Mocking">
</g>
<g id="Smiling_eyes">
</g>
<g id="Dissapointed">
</g>
<g id="Cool">
</g>
<g id="Snoring">
</g>
<g id="Kissing_Face">
</g>
<g id="Heart_Eyes">
</g>
<g id="ROFL">
</g>
<g id="Confused">
</g>
<g id="Famous">
</g>
<g id="Puke">
</g>
<g id="Laugh">
</g>
<g id="Dizzy">
</g>
<g id="Anger">
</g>
<g id="Crying">
</g>
<g id="In_Love">
</g>
<g id="Surprised">
</g>
<g id="Wink">
</g>
<g id="Yummy">
</g>
<g id="Happy">
</g>
<g id="Grinning">
</g>
<g id="Flat">
</g>
<g id="Sad">
</g>
<g id="Smile">
	<g>
		<linearGradient id="SVGID_1_" gradientUnits="userSpaceOnUse" x1="7.7077" y1="5.6485" x2="41.3327" y2="43.5235">
			<stop  offset="0" style="stop-color:#FFCA4F"/>
			<stop  offset="1" style="stop-color:#F7AE30"/>
		</linearGradient>
		<circle class="st0" cx="24" cy="24" r="22"/>
		
			<linearGradient id="SVGID_00000085221315940572204380000002855082594902482841_" gradientUnits="userSpaceOnUse" x1="24.4499" y1="24.4429" x2="39.5728" y2="39.3138">
			<stop  offset="0" style="stop-color:#FFCA4F;stop-opacity:0"/>
			<stop  offset="1" style="stop-color:#F4901F"/>
		</linearGradient>
		<path style="fill:url(#SVGID_00000085221315940572204380000002855082594902482841_);" d="M8.45,39.55C12.43,43.53,17.93,46,24,46
			c12.13,0,22-9.87,22-22c0-6.07-2.47-11.57-6.45-15.55L8.45,39.55z"/>
		
			<linearGradient id="SVGID_00000034054654673937129160000006257213817587835802_" gradientUnits="userSpaceOnUse" x1="8.8301" y1="8.5883" x2="19.4626" y2="19.3905">
			<stop  offset="0" style="stop-color:#FFD980"/>
			<stop  offset="1" style="stop-color:#FFCA4F;stop-opacity:0"/>
		</linearGradient>
		<path style="fill:url(#SVGID_00000034054654673937129160000006257213817587835802_);" d="M14,34c0-11.03,8.97-20,20-20
			c2.93,0,5.71,0.65,8.21,1.79C39.07,8.85,32.1,4,24,4C12.97,4,4,12.97,4,24c0,8.1,4.85,15.07,11.79,18.21
			C14.65,39.71,14,36.93,14,34z"/>
		
			<linearGradient id="SVGID_00000183961884206166338380000003310788080730388869_" gradientUnits="userSpaceOnUse" x1="14.3919" y1="13.9235" x2="18.7211" y2="19.2147">
			<stop  offset="0" style="stop-color:#F7AE30"/>
			<stop  offset="1" style="stop-color:#FFCA4F"/>
		</linearGradient>
		<circle style="fill:url(#SVGID_00000183961884206166338380000003310788080730388869_);" cx="16.5" cy="16.5" r="3.5"/>
		
			<linearGradient id="SVGID_00000156547902824935112270000017324736042772433553_" gradientUnits="userSpaceOnUse" x1="29.3752" y1="14.0103" x2="33.7043" y2="19.0828">
			<stop  offset="0" style="stop-color:#F7AE30"/>
			<stop  offset="1" style="stop-color:#FFCA4F"/>
		</linearGradient>
		<circle style="fill:url(#SVGID_00000156547902824935112270000017324736042772433553_);" cx="31.5" cy="16.5" r="3.5"/>
		
			<linearGradient id="SVGID_00000037682234172910316010000016939998927421146019_" gradientUnits="userSpaceOnUse" x1="14.9935" y1="14.6587" x2="18.0873" y2="18.44">
			<stop  offset="0" style="stop-color:#3F4C56"/>
			<stop  offset="1" style="stop-color:#27333E"/>
		</linearGradient>
		<circle style="fill:url(#SVGID_00000037682234172910316010000016939998927421146019_);" cx="16.5" cy="16.5" r="2.5"/>
		
			<linearGradient id="SVGID_00000163793850432288365790000013024819972809099940_" gradientUnits="userSpaceOnUse" x1="29.9815" y1="14.7208" x2="33.0753" y2="18.3458">
			<stop  offset="0" style="stop-color:#3F4C56"/>
			<stop  offset="1" style="stop-color:#27333E"/>
		</linearGradient>
		<circle style="fill:url(#SVGID_00000163793850432288365790000013024819972809099940_);" cx="31.5" cy="16.5" r="2.5"/>
		
			<linearGradient id="SVGID_00000171720699921636564010000004007209741258323596_" gradientUnits="userSpaceOnUse" x1="24" y1="30.8125" x2="24" y2="38.6993">
			<stop  offset="0" style="stop-color:#F7AE30"/>
			<stop  offset="1" style="stop-color:#FFCA4F;stop-opacity:0"/>
		</linearGradient>
		<path style="fill:url(#SVGID_00000171720699921636564010000004007209741258323596_);" d="M24,37c-7.91,0-11.45-4.6-11.6-4.8
			c-0.32-0.43-0.46-0.95-0.38-1.48c0.08-0.53,0.35-1,0.78-1.32c0.35-0.26,0.76-0.4,1.2-0.4c0.63,0,1.21,0.29,1.59,0.79
			C15.69,29.92,18.13,33,24,33c5.83,0,8.31-3.08,8.41-3.21C32.78,29.3,33.37,29,34,29c0.44,0,0.85,0.14,1.2,0.4
			c0.43,0.32,0.7,0.79,0.78,1.32c0.08,0.53-0.06,1.06-0.38,1.48C35.45,32.4,31.91,37,24,37z"/>
		
			<linearGradient id="SVGID_00000067954034476895610440000006418750033712784025_" gradientUnits="userSpaceOnUse" x1="24" y1="30.375" x2="24" y2="36.2901">
			<stop  offset="0" style="stop-color:#3F4C56"/>
			<stop  offset="1" style="stop-color:#27333E"/>
		</linearGradient>
		<path style="fill:url(#SVGID_00000067954034476895610440000006418750033712784025_);" d="M24,36c-7.41,0-10.67-4.22-10.8-4.4
			c-0.33-0.44-0.24-1.07,0.2-1.4s1.06-0.24,1.4,0.2c0.12,0.16,2.85,3.6,9.2,3.6c6.43,0,9.17-3.56,9.2-3.6
			c0.33-0.44,0.96-0.53,1.4-0.2c0.44,0.33,0.53,0.96,0.2,1.4C34.67,31.78,31.41,36,24,36z"/>
	</g>
</g>
</svg>
