<?xml version="1.0" encoding="iso-8859-1"?>
<!-- Generator: Adobe Illustrator 19.0.0, SVG Export Plug-In . SVG Version: 6.00 Build 0)  -->
<svg version="1.1" id="Capa_1" xmlns="http://www.w3.org/2000/svg" xmlns:xlink="http://www.w3.org/1999/xlink" x="0px" y="0px"
	 viewBox="0 0 512 512" style="enable-background:new 0 0 512 512;" xml:space="preserve">
<g>
	<g>
		<g>
			<path style="fill:#231F20;" d="M100.174,22.261H11.13C4.986,22.261,0,27.247,0,33.391v89.044c0,6.144,4.986,11.13,11.13,11.13
				h89.043c6.144,0,11.13-4.986,11.13-11.13V33.391C111.304,27.247,106.318,22.261,100.174,22.261z M89.043,111.304H22.261V44.522
				h66.783V111.304z"/>
			<path style="fill:#231F20;" d="M100.174,200.348H11.13c-6.144,0-11.13,4.986-11.13,11.13v89.043c0,6.155,4.986,11.13,11.13,11.13
				h89.043c6.144,0,11.13-4.975,11.13-11.13v-89.043C111.304,205.334,106.318,200.348,100.174,200.348z M89.043,289.391H22.261
				v-66.783h66.783V289.391z"/>
			<path style="fill:#231F20;" d="M100.174,378.435H11.13c-6.144,0-11.13,4.975-11.13,11.13v89.043c0,6.155,4.986,11.13,11.13,11.13
				h89.043c6.144,0,11.13-4.975,11.13-11.13v-89.043C111.304,383.41,106.318,378.435,100.174,378.435z M89.043,467.478H22.261
				v-66.783h66.783V467.478z"/>
			<path style="fill:#231F20;" d="M500.87,22.261H166.957c-6.144,0-11.13,4.986-11.13,11.13v89.044c0,6.144,4.986,11.13,11.13,11.13
				H500.87c6.155,0,11.13-4.986,11.13-11.13V33.391C512,27.247,507.025,22.261,500.87,22.261z M489.739,111.304H178.087V44.522
				h311.652V111.304z"/>
			<path style="fill:#231F20;" d="M500.87,200.348H166.957c-6.144,0-11.13,4.986-11.13,11.13v89.043
				c0,6.155,4.986,11.13,11.13,11.13H500.87c6.155,0,11.13-4.975,11.13-11.13v-89.043C512,205.334,507.025,200.348,500.87,200.348z
				 M489.739,289.391H178.087v-66.783h311.652V289.391z"/>
			<path style="fill:#231F20;" d="M500.87,378.435H166.957c-6.144,0-11.13,4.975-11.13,11.13v89.043
				c0,6.155,4.986,11.13,11.13,11.13H500.87c6.155,0,11.13-4.975,11.13-11.13v-89.043C512,383.41,507.025,378.435,500.87,378.435z
				 M489.739,467.478H178.087v-66.783h311.652V467.478z"/>
		</g>
	</g>
</g>
<g>
</g>
<g>
</g>
<g>
</g>
<g>
</g>
<g>
</g>
<g>
</g>
<g>
</g>
<g>
</g>
<g>
</g>
<g>
</g>
<g>
</g>
<g>
</g>
<g>
</g>
<g>
</g>
<g>
</g>
</svg>
