<?xml version="1.0" encoding="utf-8"?>
<!-- Generator: Adobe Illustrator 19.0.0, SVG Export Plug-In . SVG Version: 6.00 Build 0)  -->
<svg version="1.1" id="Layer_1" xmlns="http://www.w3.org/2000/svg" xmlns:xlink="http://www.w3.org/1999/xlink" x="0px" y="0px"
	 viewBox="106 -106 512 512" enable-background="new 106 -106 512 512" xml:space="preserve">
<path fill="#06A29D" d="M610.5,339.7h-12v-218c0-22.3-18.2-40.5-40.5-40.5h-53.5V51.4l49.7-68.7c1.5,2.3,2.5,4.8,3,7.6
	c0.8,5.1-0.4,10.3-3.4,14.5l-32.1,44.4c-5.6,7.8,6.5,16.6,12.2,8.8l32.1-44.4c5.4-7.5,7.5-16.6,6.1-25.6c-1.1-6.8-4.1-12.9-8.6-17.8
	l15.1-20.9c5.1-7.1,7.2-15.7,5.8-24.4c-1.4-8.6-6.1-16.2-13.2-21.3c-14.6-10.6-35.1-7.3-45.7,7.4l-66.5,92c-2.6-0.4-5.2-0.6-7.9-0.6
	H270.1c-29.5,0-53.6,24-53.6,53.6v25.4H166c-22.3,0-40.5,18.2-40.5,40.5V255c0,9.7,15,9.7,15,0V121.7c0-14.1,11.4-25.5,25.5-25.5
	h50.5v17.8H163c-4.1,0-7.5,3.4-7.5,7.5v218.2h-15V295c0-9.7-15-9.7-15,0v44.8h-12c-4.1,0-7.5,3.4-7.5,7.5v18.4
	c0,20.5,16.7,37.1,37.1,37.1H516c9.7,0,9.7-15,0-15H143.1c-12.2,0-22.1-9.9-22.1-22.1v-10.9h201v0.1c0,13.5,10.9,24.4,24.4,24.4
	h31.2c13.5,0,24.4-10.9,24.4-24.4v-0.1h201v10.9c0,12.2-9.9,22.1-22.1,22.1H558c-9.7,0-9.7,15,0,15h22.9c20.5,0,37.1-16.7,37.1-37.1
	v-18.4C618,343.1,614.6,339.7,610.5,339.7z M411.4,105.6l17.8,12.9L411,125L411.4,105.6z M443.5,110.3l-28.8-20.8L514-47.9
	l28.8,20.8L443.5,110.3z M537.5-80.4c5.7-7.9,16.8-9.7,24.8-4c3.8,2.8,6.4,6.9,7.1,11.6c0.8,4.7-0.4,9.4-3.1,13.2l-14.7,20.3
	l-28.8-20.8L537.5-80.4z M387,354.8c0,5.2-4.2,9.4-9.4,9.4h-31.2c-5.2,0-9.4-4.2-9.4-9.4v-0.1h50L387,354.8L387,354.8z M170.5,339.7
	V129.1h46v33.6c0,27,20.1,49.4,46.1,53v57c0,3,1.8,5.8,4.6,6.9c0.9,0.4,1.9,0.6,2.9,0.6c2,0,3.9-0.8,5.3-2.2l61.8-61.8H412
	c9.7,0,9.7-15,0-15h-77.9c-2,0-3.9,0.8-5.3,2.2l-51.2,51.2v-45.9c0-4.1-3.4-7.5-7.5-7.5c-21.3,0-38.6-17.3-38.6-38.6V55.8
	c0-21.3,17.3-38.6,38.6-38.6h178.4l-50.2,69.5c-0.9,1.2-1.4,2.7-1.4,4.2l-1,44.5c-0.1,5.1,5.2,9,10,7.2l42-15
	c1.4-0.5,2.7-1.5,3.6-2.7l38.3-52.9v90.5c0,21.3-17.3,38.6-38.6,38.6c-9.7,0-9.7,15,0,15c29.5,0,53.6-24,53.6-53.6v-33.6h49v210.7
	L170.5,339.7z M568.5,339.7V121.6c0-4.1-3.4-7.5-7.5-7.5h-56.5V96.2H558c14.1,0,25.5,11.4,25.5,25.5v218H568.5z"/>
<path fill="#06A29D" d="M365,128.2h-83c-4.1,0-7.5,3.4-7.5,7.5s3.4,7.5,7.5,7.5h83c4.1,0,7.5-3.4,7.5-7.5S369.1,128.2,365,128.2z"/>
<path fill="#06A29D" d="M365,75.3h-83c-4.1,0-7.5,3.4-7.5,7.5s3.4,7.5,7.5,7.5h83c4.1,0,7.5-3.4,7.5-7.5S369.1,75.3,365,75.3z"/>
</svg>
