<?xml version="1.0" encoding="utf-8"?>
<!-- Generator: Adobe Illustrator 19.0.0, SVG Export Plug-In . SVG Version: 6.00 Build 0)  -->
<svg version="1.1" id="Layer_1" xmlns="http://www.w3.org/2000/svg" xmlns:xlink="http://www.w3.org/1999/xlink" x="0px" y="0px"
	 viewBox="-150 -362 512 512" enable-background="new -150 -362 512 512" xml:space="preserve">
<g>
	<g>
		<g>
			<path fill="#06A29D" d="M195.1-43c-5.5,0-9.9,4.4-9.9,9.9v68.3c0,27.3-22.2,49.5-49.5,49.5H28.8c-5.5,0-9.9,4.4-9.9,9.9l0,19.7
				L-4.7,90.6c-1.5-3.5-5-5.9-9.1-5.9h-64.3c-27.3,0-49.5-22.2-49.5-49.5v-152.4c0-27.3,22.2-49.5,49.5-49.5h100
				c5.5,0,9.9-4.4,9.9-9.9s-4.4-9.9-9.9-9.9h-100c-38.2,0-69.3,31.1-69.3,69.3V35.2c0,38.2,31.1,69.3,69.3,69.3h59.2l40.7,40.7
				c1.9,1.9,4.4,2.9,7,2.9c1.3,0,2.6-0.2,3.8-0.8c3.7-1.5,6.1-5.1,6.1-9.1l0-33.7h97c38.2,0,69.3-31.1,69.3-69.3v-68.3
				C205-38.6,200.5-43,195.1-43z"/>
		</g>
	</g>
	<g>
		<g>
			<path fill="#06A29D" d="M215.5-358.8h-25.1c-79.3,0-143.9,64.5-143.9,143.9S111.1-71.1,190.5-71.1h25.1c12.4,0,24.6-1.6,36.5-4.7
				l37,37c1.9,1.9,4.4,2.9,7,2.9c1.3,0,2.6-0.2,3.8-0.8c3.7-1.5,6.1-5.1,6.1-9.1V-103c15.7-12.7,28.7-28.7,37.8-46.6
				c10.4-20.3,15.6-42.3,15.6-65.3C359.4-294.2,294.9-358.8,215.5-358.8z M290.1-115.8c-2.5,1.9-3.9,4.8-3.9,7.9v38.2l-24.2-24.2
				c-1.9-1.9-4.4-2.9-7-2.9c-1,0-1.9,0.1-2.9,0.4c-11.8,3.6-24.1,5.5-36.5,5.5h-25.1c-68.4,0-124.1-55.7-124.1-124.1
				S122.1-339,190.5-339h25.1c68.4,0,124.1,55.7,124.1,124.1C339.6-175.6,321.6-139.4,290.1-115.8z"/>
		</g>
	</g>
	<g>
		<g>
			<path fill="#06A29D" d="M247.6-250.5c-1.4-20.7-18.1-37.4-38.9-38.9c-11.7-0.8-23,3.2-31.5,11.2c-8.5,7.9-13.3,19.1-13.3,30.6
				c0,5.5,4.4,9.9,9.9,9.9c5.5,0,9.9-4.4,9.9-9.9c0-6.2,2.5-11.9,7-16.2c4.5-4.2,10.4-6.3,16.7-5.9c10.9,0.8,19.7,9.6,20.5,20.5
				c0.8,11-6.5,20.8-17.2,23.2c-8.7,1.9-14.8,9.5-14.8,18.4v23.8c0,5.5,4.4,9.9,9.9,9.9c5.5,0,9.9-4.4,9.9-9.9v-23
				C235.6-211.6,249-229.9,247.6-250.5z"/>
		</g>
	</g>
	<g>
		<g>
			<path fill="#06A29D" d="M212.8-151.7c-1.8-1.8-4.4-2.9-7-2.9c-2.6,0-5.2,1.1-7,2.9c-1.8,1.8-2.9,4.4-2.9,7c0,2.6,1.1,5.2,2.9,7
				c1.8,1.8,4.4,2.9,7,2.9c2.6,0,5.2-1,7-2.9c1.8-1.9,2.9-4.4,2.9-7C215.7-147.3,214.6-149.8,212.8-151.7z"/>
		</g>
	</g>
	<g>
		<g>
			<path fill="#06A29D" d="M124.8-51.9H-84c-5.5,0-9.9,4.4-9.9,9.9s4.4,9.9,9.9,9.9h208.9c5.5,0,9.9-4.4,9.9-9.9
				S130.3-51.9,124.8-51.9z"/>
		</g>
	</g>
	<g>
		<g>
			<path fill="#06A29D" d="M131.8,6.4c-1.8-1.8-4.4-2.9-7-2.9c-2.6,0-5.2,1.1-7,2.9c-1.8,1.8-2.9,4.4-2.9,7s1.1,5.2,2.9,7
				c1.8,1.8,4.4,2.9,7,2.9c2.6,0,5.2-1.1,7-2.9c1.8-1.8,2.9-4.4,2.9-7C134.7,10.8,133.6,8.2,131.8,6.4z"/>
		</g>
	</g>
	<g>
		<g>
			<path fill="#06A29D" d="M85.9,3.5H-84c-5.5,0-9.9,4.4-9.9,9.9s4.4,9.9,9.9,9.9H85.9c5.5,0,9.9-4.4,9.9-9.9S91.3,3.5,85.9,3.5z"/>
		</g>
	</g>
	<g>
		<g>
			<path fill="#06A29D" d="M60.5-107.4H-84c-5.5,0-9.9,4.4-9.9,9.9s4.4,9.9,9.9,9.9H60.5c5.5,0,9.9-4.4,9.9-9.9
				S65.9-107.4,60.5-107.4z"/>
		</g>
	</g>
</g>
</svg>
