<?xml version="1.0" encoding="utf-8"?>
<!-- Generator: Adobe Illustrator 19.0.0, SVG Export Plug-In . SVG Version: 6.00 Build 0)  -->
<svg version="1.1" id="Capa_1" xmlns="http://www.w3.org/2000/svg" xmlns:xlink="http://www.w3.org/1999/xlink" x="0px" y="0px"
	 viewBox="106 -106 512 512" enable-background="new 106 -106 512 512" xml:space="preserve">
<g>
	<g>
		<g>
			<path fill="#06A29D" d="M451.1,39.6h-63.7c-4.1,0-7.4,3.3-7.4,7.4s3.3,7.4,7.4,7.4h63.7c4.1,0,7.4-3.3,7.4-7.4
				S455.2,39.6,451.1,39.6z"/>
		</g>
	</g>
	<g>
		<g>
			<path fill="#06A29D" d="M451.1,81h-63.7c-4.1,0-7.4,3.3-7.4,7.4c0,4.1,3.3,7.4,7.4,7.4h63.7c4.1,0,7.4-3.3,7.4-7.4
				C458.5,84.3,455.2,81,451.1,81z"/>
		</g>
	</g>
	<g>
		<g>
			<path fill="#06A29D" d="M451.1,122.4h-63.7c-4.1,0-7.4,3.3-7.4,7.4s3.3,7.4,7.4,7.4h63.7c4.1,0,7.4-3.3,7.4-7.4
				C458.5,125.7,455.2,122.4,451.1,122.4z"/>
		</g>
	</g>
	<g>
		<g>
			<path fill="#06A29D" d="M451.1,163.7h-63.7c-4.1,0-7.4,3.3-7.4,7.4c0,4.1,3.3,7.4,7.4,7.4h63.7c4.1,0,7.4-3.3,7.4-7.4
				S455.2,163.7,451.1,163.7z"/>
		</g>
	</g>
	<g>
		<g>
			<path fill="#06A29D" d="M353.3,39.6h-4.2c-4.1,0-7.4,3.3-7.4,7.4s3.3,7.4,7.4,7.4h4.2c4.1,0,7.4-3.3,7.4-7.4
				S357.4,39.6,353.3,39.6z"/>
		</g>
	</g>
	<g>
		<g>
			<path fill="#06A29D" d="M353.3,81h-4.2c-4.1,0-7.4,3.3-7.4,7.4c0,4.1,3.3,7.4,7.4,7.4h4.2c4.1,0,7.4-3.3,7.4-7.4
				C360.7,84.3,357.4,81,353.3,81z"/>
		</g>
	</g>
	<g>
		<g>
			<path fill="#06A29D" d="M353.3,122.4h-4.2c-4.1,0-7.4,3.3-7.4,7.4s3.3,7.4,7.4,7.4h4.2c4.1,0,7.4-3.3,7.4-7.4
				C360.7,125.7,357.4,122.4,353.3,122.4z"/>
		</g>
	</g>
	<g>
		<g>
			<path fill="#06A29D" d="M353.3,163.7h-4.2c-4.1,0-7.4,3.3-7.4,7.4c0,4.1,3.3,7.4,7.4,7.4h4.2c4.1,0,7.4-3.3,7.4-7.4
				S357.4,163.7,353.3,163.7z"/>
		</g>
	</g>
	<g>
		<g>
			<path fill="#06A29D" d="M451.1,205.1H179.9c-4.1,0-7.4,3.3-7.4,7.4c0,4.1,3.3,7.4,7.4,7.4h271.2c4.1,0,7.4-3.3,7.4-7.4
				C458.5,208.4,455.2,205.1,451.1,205.1z"/>
		</g>
	</g>
	<g>
		<g>
			<path fill="#06A29D" d="M451.1,246.4H179.9c-4.1,0-7.4,3.3-7.4,7.4c0,4.1,3.3,7.4,7.4,7.4h271.2c4.1,0,7.4-3.3,7.4-7.4
				C458.5,249.8,455.2,246.4,451.1,246.4z"/>
		</g>
	</g>
	<g>
		<g>
			<path fill="#06A29D" d="M451.1,287.8H179.9c-4.1,0-7.4,3.3-7.4,7.4s3.3,7.4,7.4,7.4h271.2c4.1,0,7.4-3.3,7.4-7.4
				C458.5,291.1,455.2,287.8,451.1,287.8z"/>
		</g>
	</g>
	<g>
		<g>
			<path fill="#06A29D" d="M451.1,329.2H179.9c-4.1,0-7.4,3.3-7.4,7.4s3.3,7.4,7.4,7.4h271.2c4.1,0,7.4-3.3,7.4-7.4
				C458.5,332.5,455.2,329.2,451.1,329.2z"/>
		</g>
	</g>
	<g>
		<g>
			<path fill="#06A29D" d="M315.5,39.6H179.9c-4.1,0-7.4,3.3-7.4,7.4v124.1c0,4.1,3.3,7.4,7.4,7.4h135.6c4.1,0,7.4-3.3,7.4-7.4v-124
				C322.9,43,319.6,39.6,315.5,39.6z M308,163.7H187.3V54.5H308V163.7z"/>
		</g>
	</g>
	<g>
		<g>
			<path fill="#06A29D" d="M451.1-44.4H328.3c-4.1,0-7.4,3.3-7.4,7.4s3.3,7.4,7.4,7.4h115.3v27.4H187.3v-27.4h106.3
				c4.1,0,7.4-3.3,7.4-7.4s-3.3-7.4-7.4-7.4H179.9c-4.1,0-7.4,3.3-7.4,7.4V5.3c0,4.1,3.3,7.4,7.4,7.4h271.2c4.1,0,7.4-3.3,7.4-7.4
				V-37C458.5-41.1,455.2-44.4,451.1-44.4z"/>
		</g>
	</g>
	<g>
		<g>
			<path fill="#06A29D" d="M598.3,168.2c4.1,0,7.4-3.3,7.4-7.4v-166c0-19.6-16-35.6-35.6-35.6h-56.7V-68c0-19.6-16-35.6-35.6-35.6
				h-324c-19.6,0-35.6,16-35.6,35.6v436c0,19.6,16,35.6,35.6,35.6h398.4c29.6,0,53.6-24,53.6-53.6V195.4c0-4.1-3.3-7.4-7.4-7.4
				s-7.4,3.3-7.4,7.4V350c0,21.4-17.4,38.7-38.7,38.7c-21.4,0-38.7-17.4-38.7-38.7V-26h56.6c11.4,0,20.7,9.3,20.7,20.7v166
				C590.9,164.9,594.2,168.2,598.3,168.2z M515.1,388.7H153.8c-11.4,0-20.7-9.3-20.7-20.7V-68c0-11.4,9.3-20.7,20.7-20.7h324
				c11.4,0,20.7,9.3,20.7,20.7c0,440.2-0.1,418.6,0.1,421.7C499.6,367.3,505.7,379.7,515.1,388.7z"/>
		</g>
	</g>
</g>
</svg>
