<svg id="Layer_1" data-name="Layer 1" xmlns="http://www.w3.org/2000/svg" viewBox="0 0 228.81 227.25"><defs><style>.cls-1,.cls-2{fill:none;stroke:#06a29d;stroke-linecap:round;stroke-miterlimit:10;}.cls-1{stroke-width:5px;}.cls-2{stroke-width:2px;}.cls-3{fill:#06a29d;}</style></defs><path class="cls-1" d="M108.45,145.62a29.08,29.08,0,1,1,24.46-13.34"/><circle class="cls-1" cx="108.45" cy="116.53" r="17.88"/><polyline class="cls-1" points="72.48 110.94 28.93 110.94 28.93 87.45"/><line class="cls-1" x1="79.36" y1="128.28" x2="50.71" y2="128.28"/><polyline class="cls-1" points="73.42 60.91 73.42 69.31 106.8 69.31 106.8 84.03"/><polyline class="cls-1" points="130.05 97.05 130.05 81.11 144.95 81.11 144.95 71.19"/><polyline class="cls-1" points="147.56 117.47 168.26 117.47 168.26 98.66 191.38 98.66 191.38 82.97"/><polyline class="cls-1" points="138.99 127.91 171.43 127.91 171.43 150.28"/><path class="cls-2" d="M60.2,35.07v11.8a1,1,0,0,0,.52.87L72.3,54a1,1,0,0,0,.9,0l12.89-6.28a1,1,0,0,0,.55-.89V35.09a1,1,0,0,0-.52-.87L74.06,27.83a2.07,2.07,0,0,0-2,0L60.7,34.21A1,1,0,0,0,60.2,35.07Z"/><polyline class="cls-2" points="72.89 54.1 72.89 41.23 86.45 34.51"/><line class="cls-2" x1="60.38" y1="34.51" x2="72.89" y2="41.23"/><polyline class="cls-2" points="67.33 30.51 79.91 37.75 79.91 42.06"/><path class="cls-2" d="M131.73,44.14v11.8a1,1,0,0,0,.52.87l11.59,6.25a.94.94,0,0,0,.89,0l12.89-6.28a1,1,0,0,0,.56-.88V44.16a1,1,0,0,0-.53-.87l-12.06-6.38a2.07,2.07,0,0,0-2,0l-11.37,6.36A1,1,0,0,0,131.73,44.14Z"/><polyline class="cls-2" points="144.42 63.17 144.42 50.31 157.99 43.58"/><line class="cls-2" x1="131.91" y1="43.58" x2="144.42" y2="50.31"/><polyline class="cls-2" points="138.86 39.58 151.44 46.83 151.44 51.14"/><path class="cls-2" d="M178.16,54v11.8a1,1,0,0,0,.52.86l11.58,6.26a1,1,0,0,0,.9,0l12.89-6.29a1,1,0,0,0,.55-.88V54a1,1,0,0,0-.52-.87L192,46.74a2.1,2.1,0,0,0-2,0l-11.37,6.36A1,1,0,0,0,178.16,54Z"/><polyline class="cls-2" points="190.85 73.01 190.85 60.14 204.41 53.41"/><line class="cls-2" x1="178.34" y1="53.41" x2="190.85" y2="60.14"/><polyline class="cls-2" points="185.29 49.42 197.87 56.66 197.87 60.97"/><path class="cls-2" d="M158.21,163.83v11.8a1,1,0,0,0,.51.86l11.59,6.26a1,1,0,0,0,.9,0l12.89-6.29a1,1,0,0,0,.55-.88V163.84a1,1,0,0,0-.52-.87l-12.06-6.38a2.1,2.1,0,0,0-2,0L158.71,163A1,1,0,0,0,158.21,163.83Z"/><polyline class="cls-2" points="170.9 182.86 170.9 169.99 184.46 163.26"/><line class="cls-2" x1="158.39" y1="163.26" x2="170.9" y2="169.99"/><polyline class="cls-2" points="165.34 159.26 177.92 166.51 177.92 170.82"/><path class="cls-2" d="M15.91,59.51v11.8a1,1,0,0,0,.51.87L28,78.43a1,1,0,0,0,.9,0L41.8,72.17a1,1,0,0,0,.55-.89V59.53a1,1,0,0,0-.52-.87L29.77,52.27a2.07,2.07,0,0,0-2,0L16.41,58.65A1,1,0,0,0,15.91,59.51Z"/><polyline class="cls-2" points="28.6 78.54 28.6 65.67 42.16 58.95"/><line class="cls-2" x1="16.09" y1="58.95" x2="28.6" y2="65.68"/><polyline class="cls-2" points="23.04 54.95 35.62 62.19 35.62 66.5"/><path class="cls-3" d="M35.47,132.32H22.24a5.07,5.07,0,0,0-5,5.07v55.77a5.05,5.05,0,0,0,5,5H35.47a5.05,5.05,0,0,0,5.05-5v-2.3l41.54,4A17.19,17.19,0,0,0,94,192.53c5.64-3.31,47.27-26.59,52-29.24l.09,0c1-.41,10.12-4.2,9-11.44a10.67,10.67,0,0,0-11.75-9.51,11.54,11.54,0,0,0-1.33.23l-32.72,14.1.14,1.05a15.33,15.33,0,0,1-11,16.71l-.2,0H67.49a2.85,2.85,0,0,1-1.13-.35l-.34-.21v-.4a1.34,1.34,0,0,1,.28-1A2.42,2.42,0,0,1,68,172l27.9-.16a11.49,11.49,0,0,0,11.48-11.48V160a11.54,11.54,0,0,0-10.63-11.44l-28.67,0a15.15,15.15,0,0,1-3.14-1.26c-2.67-1.61-10.27-5.38-23.67-6.08l-.71,0V137.4a5,5,0,0,0-1.46-3.58A5.05,5.05,0,0,0,35.47,132.32ZM67.29,173.6ZM35.47,195.4H22.24A2.25,2.25,0,0,1,20,193.16V137.37a2.24,2.24,0,0,1,2.25-2.24H35.48a2.21,2.21,0,0,1,1.59.66,2.26,2.26,0,0,1,.65,1.6v6.47l1.36,0c14,.38,21.73,4.17,24.42,5.78a17.35,17.35,0,0,0,4.12,1.63l.17,0H96.52a8.75,8.75,0,0,1,8,8.64v.36A8.69,8.69,0,0,1,95.86,169l-27.93.16a4.94,4.94,0,0,0-3.7,1.4,4.14,4.14,0,0,0-1,3.13c.14,2.25,2.23,3.39,4.11,3.5H98.77l.18,0a18.16,18.16,0,0,0,13.43-18.29l0-.52,30.47-13.14a7.36,7.36,0,0,1,.84-.14,7.8,7.8,0,0,1,5.78,1.7,8,8,0,0,1,2.89,5.38c.8,5.4-7.3,8.48-7.38,8.51l-.25.12c-4.77,2.66-46.46,26-52.17,29.34a14.43,14.43,0,0,1-10,2l-44.78-4.36v5.39A2.25,2.25,0,0,1,35.47,195.4Z"/></svg>