<?xml version="1.0" encoding="utf-8"?>
<!-- Generator: Adobe Illustrator 24.3.0, SVG Export Plug-In . SVG Version: 6.00 Build 0)  -->
<svg version="1.1" id="Layer_1" xmlns="http://www.w3.org/2000/svg" xmlns:xlink="http://www.w3.org/1999/xlink" x="0px" y="0px"
	 viewBox="0 0 228.8 227.2" style="enable-background:new 0 0 228.8 227.2;" xml:space="preserve">
<style type="text/css">
	.st0{fill:none;stroke:#06A29D;stroke-width:5;stroke-linecap:round;stroke-miterlimit:10;}
</style>
<g>
	<path class="st0" d="M38.1,89.2c6.7-35.2,38.5-61.8,76.6-61.8s69.9,26.6,76.6,61.8"/>
	<path class="st0" d="M39.3,89.6h5c3.2,0,5.9,2.6,5.9,5.9l0,0v58.4c0,3.2-2.6,5.9-5.9,5.9h-5c-9.4,0-17-7.6-17-17v-36.1
		C22.3,97.2,29.9,89.6,39.3,89.6z"/>
	<path class="st0" d="M189.5,159.7h-5c-3.2,0-5.9-2.6-5.9-5.9V95.5c0-3.2,2.6-5.9,5.9-5.9h5c9.4,0,17,7.6,17,17v36.1
		C206.5,152.1,198.9,159.7,189.5,159.7z"/>
	<path class="st0" d="M189.9,159.7c-2.8,11.1-12.5,18.8-24.4,18.8l0,0h-30.7"/>
	<circle class="st0" cx="126.7" cy="178.3" r="7.1"/>
	<g>
		<path class="st0" d="M59.5,124.7V146c0,30.1,24.4,54.5,54.5,54.5s54.5-24.4,54.5-54.5v-21.2"/>
		<path class="st0" d="M178.6,156.5h-10.8"/>
		<path class="st0" d="M55.5,124.8h116"/>
		<path class="st0" d="M59.7,156.5h-8.2"/>
		<path class="st0" d="M178.4,124.8H51.7"/>
		<path class="st0" d="M51.7,105.4h126.8"/>
		<path class="st0" d="M135.6,51.7c23,6.7,39.2,23.4,39.2,42.9v10.8"/>
		<path class="st0" d="M92.6,51.2c-23.9,6.3-41,23.4-41,43.4v9.6"/>
		<path class="st0" d="M93.2,84.5V45.2c0-5.3,4.3-9.6,9.6-9.6h22.9c5.3,0,9.6,4.3,9.6,9.6v39.3"/>
	</g>
</g>
</svg>
