<svg id="Layer_1" data-name="Layer 1" xmlns="http://www.w3.org/2000/svg" viewBox="0 0 228.81 227.25"><defs><style>.cls-1{fill:#06a29d;}</style></defs><path class="cls-1" d="M165.09,99.64l1.16.2c.8.13,3.19.07,8.27-3.8l.74-.56.39.84a4,4,0,0,0,3.65,2.35h10.5a4,4,0,0,0,4-4V37.4a4,4,0,0,0-4-4H179.24a4,4,0,0,0-4,4v1.41H137.44a22.29,22.29,0,0,0-15.25,6.06L102.1,64.59h22.51l8-7.94a1.76,1.76,0,0,1,1.61-.6l.15,0,.13.08a1.55,1.55,0,0,1,.61,1.93,1.8,1.8,0,0,1-.21.35L116.64,76.68a11,11,0,1,0,15.58,15.57l18.7-18.72.48.21a11.38,11.38,0,0,0,4.82,1c5.58.14,8.37-1.74,9.09-2.31l.17-.11a1.73,1.73,0,0,1,1.68,0,1.21,1.21,0,0,1,.41,1.14A2.16,2.16,0,0,1,166,75l-.92.33Zm2.8-2.82V77.19l.34-.22a4.42,4.42,0,0,0,2.1-3,4,4,0,0,0-1.42-3.78,4.57,4.57,0,0,0-5.07-.11l-.21.16c-.27.23-2.38,1.9-7.4,1.76a8.71,8.71,0,0,1-4.78-1.36L150.5,70,130.23,90.27a8.21,8.21,0,0,1-11.61-11.6L137,60.34a4.33,4.33,0,0,0,.74-1.16,4.39,4.39,0,0,0,0-3.34,4.32,4.32,0,0,0-2.33-2.38l-.2-.07a4.61,4.61,0,0,0-4.72,1.44l-7,7H109l15.16-14.9a19.56,19.56,0,0,1,13.32-5.28H178v-4.2a1.22,1.22,0,0,1,1.21-1.21H189V34.8l1.5,0,0,1.68a1.19,1.19,0,0,1,.46.94V94.67a1.2,1.2,0,0,1-1.2,1.2H179.3a1.22,1.22,0,0,1-1.21-1.19V91.29h-2.23l-.39.35a32.45,32.45,0,0,1-6.5,4.64Z"/><path class="cls-1" d="M158.29,124.28H59.76a3.43,3.43,0,0,1-3.39-3.42V71a3.37,3.37,0,0,1,3.36-3.36h61.74l-1.94,1.74s-2.52,2.27-4.91,4.8a16.4,16.4,0,0,0-3.22,5.27l-.25.65-33.34-.22c-.85,0-1.44.6-1.94,3.66-.54,3.29-4.43,3.9-6.3,4.19-.89.14-1.1,1.12-1.14,1.34,0,1.1.06,12.22,0,13.74,0,.52,0,1.05,2.71,1.29,3.07.26,5,3.45,5.29,6.48,0,.07,0,.13,0,.18a1.34,1.34,0,0,0,.57.87,1.31,1.31,0,0,0,1,.22h62.71c1.34-.27,1.28-1.79,1.26-2.1v-.2c.5-4.44,4.88-5.23,6.76-5.57,1.05-.19,1.16-1.86,1.16-1.88,0-.39-.12-11,0-12.87a1,1,0,0,0-.25-.85,3.23,3.23,0,0,0-2.26-.62,3.82,3.82,0,0,1-3.55-2.15l-.32-.65,8.31-8.06.57.23a11.37,11.37,0,0,0,8.18.13l1.34-.49v43.82A3.66,3.66,0,0,1,158.29,124.28Zm-98.52-2h98.52a1.65,1.65,0,0,0,1.65-1.66v-41a13.25,13.25,0,0,1-7.66-.34l-6.21,6.08a2,2,0,0,0,1.3.47h0A5,5,0,0,1,151.13,87a3.08,3.08,0,0,1,.78,2.35c-.11,1.78,0,12.67,0,12.78-.06,1.27-.72,3.43-2.81,3.81-2.29.41-4.76,1.08-5.11,3.73a3.73,3.73,0,0,1-3,4.15l-.16,0H78.29a3.34,3.34,0,0,1-2.41-.56,3.38,3.38,0,0,1-1.4-2.16c0-.12,0-.24,0-.36-.21-2.13-1.5-4.5-3.47-4.67-1.51-.13-4.65-.4-4.54-3.35.06-1.53,0-13.61,0-13.73v-.11a3.53,3.53,0,0,1,2.82-3.14c2.25-.35,4.37-.91,4.63-2.54.33-2,.87-5.34,3.92-5.34l32,.22a18.3,18.3,0,0,1,3.36-5.28c1.12-1.19,2.26-2.31,3.17-3.18H59.73A1.36,1.36,0,0,0,58.37,71v49.82A1.42,1.42,0,0,0,59.77,122.28Z"/><path class="cls-1" d="M139.12,108.65H79.58l-.2-.75c-.06-.24-1.62-5.88-6.84-6.73L71.7,101V91.21l.74-.2a9.53,9.53,0,0,0,6.78-6.92l.19-.76h30.67l.07.92c0,.1.89,10.19,8.29,12.77,8.58,3,14.84.54,21.61-8.44l.64-.85.81.69c1.14,1,3.21,2.4,4.07,2.4h1v9.87l-.74.2c-.07,0-6.38,1.77-6.65,6.81Zm-58-2h56.2c.8-4.7,5.44-6.8,7.29-7.46V92.64a12.79,12.79,0,0,1-3.55-2c-7.08,9-14.08,11.5-23.24,8.3-7.29-2.54-9.1-10.77-9.51-13.57H81a11.53,11.53,0,0,1-7.25,7.39v6.65C78.42,100.56,80.44,104.89,81.08,106.65Z"/><path class="cls-1" d="M53.28,126.51H40.05a5.06,5.06,0,0,0-5,5.07v55.77a5,5,0,0,0,5,5H53.29a5.05,5.05,0,0,0,5.05-5v-2.3l41.53,4a17.21,17.21,0,0,0,11.94-2.37c5.64-3.31,47.27-26.59,52-29.24l.09,0c1-.41,10.11-4.2,9-11.44a10.69,10.69,0,0,0-11.76-9.51,11.75,11.75,0,0,0-1.32.23l-32.72,14.1.14,1.05a15.34,15.34,0,0,1-11,16.71l-.2,0H85.31a3,3,0,0,1-1.14-.34l-.33-.22,0-.4a1.36,1.36,0,0,1,.28-1,2.4,2.4,0,0,1,1.68-.51l27.89-.16a11.5,11.5,0,0,0,11.49-11.48v-.36a11.55,11.55,0,0,0-10.63-11.44l-28.67,0a14.93,14.93,0,0,1-3.14-1.26c-2.67-1.61-10.28-5.38-23.67-6.08l-.71,0v-3.74a5.05,5.05,0,0,0-5.06-5.08ZM85.1,167.79Zm-31.81,21.8H40.05a2.25,2.25,0,0,1-2.24-2.24V131.56a2.24,2.24,0,0,1,2.24-2.24H53.3a2.18,2.18,0,0,1,1.58.66,2.28,2.28,0,0,1,.65,1.6v6.47l1.37,0c14,.38,21.73,4.17,24.42,5.78a17.45,17.45,0,0,0,4.11,1.63l.17,0h28.74a8.73,8.73,0,0,1,8,8.64v.36a8.68,8.68,0,0,1-8.68,8.68l-27.92.16a5,5,0,0,0-3.7,1.4,4.1,4.1,0,0,0-1,3.13c.13,2.25,2.22,3.39,4.11,3.5h31.45l.17,0a18.15,18.15,0,0,0,13.44-18.29l0-.52,30.46-13.14a8.17,8.17,0,0,1,.84-.14,7.8,7.8,0,0,1,5.78,1.7,7.92,7.92,0,0,1,2.9,5.38c.8,5.4-7.3,8.48-7.38,8.51l-.26.12c-4.76,2.66-46.46,26-52.17,29.34a14.42,14.42,0,0,1-10,2L55.53,182v5.39A2.24,2.24,0,0,1,53.29,189.59Z"/></svg>