<?xml version="1.0" encoding="utf-8"?>
<!-- Generator: Adobe Illustrator 24.3.0, SVG Export Plug-In . SVG Version: 6.00 Build 0)  -->
<svg version="1.1" id="Layer_1" xmlns="http://www.w3.org/2000/svg" xmlns:xlink="http://www.w3.org/1999/xlink" x="0px" y="0px"
	 viewBox="0 0 228.8 227.2" style="enable-background:new 0 0 228.8 227.2;" xml:space="preserve">
<style type="text/css">
	.st0{fill:#06A29D;}
</style>
<path class="st0" d="M50.1,146.9h20.4c2.8,0,5.3-1.3,6.9-3.4c4,4.9,11.5,5.5,11.8,5.5h69.2c6.1,0,11-5,11.1-11.1
	c0-3.4-1.5-6.4-3.9-8.4c4.5-1.4,7.9-5.6,7.9-10.6c0-3.4-1.6-6.5-4-8.5c4.4-1.5,7.5-5.6,7.5-10.5c0-4-2.2-7.6-5.4-9.5
	c3.2-1.9,5.4-5.4,5.4-9.5c0-6.1-5-11.1-11.1-11.1h-39.7l-3.6,0.1c2-4,5.4-12.4,5.4-25.3c0-15.7-11.1-18.5-14.5-19
	c-1.8-0.2-3.4,1-3.6,2.7c-0.3,2.2-1.2,7.6-3.2,18.5c-3.7,19.9-29,32-30,32.4c-1.6-1.5-3.7-2.4-6-2.4H50.1c-4.8,0-8.7,3.9-8.8,8.7
	v52.5C41.4,142.9,45.3,146.9,50.1,146.9z M109.5,47.5c2.1-10.9,2.9-16.3,3.3-18.6c0,0,0,0,0,0c0-0.1,0.1-0.1,0.1-0.1
	c4.4,0.7,11.9,3.6,11.9,16c0,17-6.3,26-6.3,26.1l-1.9,2.6l9.5-0.4h39.7c3.9,0.3,6.9,3.4,7.3,7.3c0.4,4.3-2.7,8-6.9,8.6
	c-0.1,0-0.3,0-0.4,0h-11v3H165c0.2,0.1,0.5,0.2,0.8,0.2l0,0c0.4,0,0.7,0,1.1-0.1c3.9,0.5,6.9,3.9,6.9,7.9c0,4.4-3.6,8-8,8h-2.7
	c-0.3,0-0.5,0-0.8,0h-8.5c-0.1,0-0.2,0-0.2,0c-0.9,0.1-1.5,0.8-1.4,1.7s0.8,1.5,1.7,1.4h1c0.1,0,0.2,0,0.3,0h7.4
	c3.8,0.4,6.7,3.5,7.1,7.2c0.4,4.4-2.9,8.3-7.3,8.7h-3.4c-0.2,0-0.4,0-0.6,0h-6c-0.8,0.1-1.4,0.7-1.4,1.4c-0.1,0.9,0.6,1.6,1.4,1.7
	h1.1c0.1,0,0.1,0,0.2,0h6.3c4.3,0.5,7.4,4.3,7.1,8.6c-0.4,4.4-4.3,7.7-8.7,7.3h-69c-0.6-0.1-7.9-0.8-10.4-5.7
	c0.2-0.7,0.3-1.4,0.3-2.1V85.7c0-1.3-0.3-2.6-0.9-3.8C82.4,79.9,105.7,67.7,109.5,47.5z M44.4,85.7c0-3.1,2.5-5.7,5.7-5.7h20.4
	c3.1,0,5.6,2.5,5.6,5.7v52.5c0,0.3,0,0.5-0.1,0.8c-0.4,0.4-0.6,1-0.4,1.5c-0.9,2-2.9,3.4-5.2,3.4H50.1c-3.1,0-5.7-2.5-5.7-5.7V85.7z
	"/>
<path class="st0" d="M60.3,139.5c5,0,9.1-4.1,9.1-9.1c0-5-4.1-9.1-9.1-9.1s-9.1,4.1-9.1,9.1S55.2,139.5,60.3,139.5z M60.3,124.4
	c3.3,0,6,2.7,6,6s-2.7,6-6,6s-6-2.7-6-6S57,124.4,60.3,124.4z"/>
<g>
	<path class="st0" d="M62,154.2c-11.7,0-21.2,9.5-21.2,21.2c0,11.7,9.5,21.2,21.2,21.2c11.7,0,21.2-9.5,21.2-21.2
		C83.1,163.7,73.6,154.2,62,154.2z M62,193.8c-10.2,0-18.4-8.3-18.4-18.4c0-10.2,8.3-18.4,18.4-18.4s18.4,8.3,18.4,18.4
		C80.4,185.5,72.1,193.8,62,193.8z"/>
	<path class="st0" d="M70.6,175.4c0,4.8-3.9,8.7-8.7,8.7s-8.7-3.9-8.7-8.7v-0.5h-2.8v0.5c0,6.3,5.1,11.4,11.4,11.4
		c6.3,0,11.4-5.1,11.4-11.4v-0.5h-2.8V175.4z"/>
	<path class="st0" d="M55.4,171.3c1.6,0,2.9-1.3,2.9-2.9c0-1.6-1.3-2.9-2.9-2.9s-2.9,1.3-2.9,2.9C52.5,170,53.8,171.3,55.4,171.3z"
		/>
	<path class="st0" d="M68.3,171.3c1.6,0,2.9-1.3,2.9-2.9c0-1.6-1.3-2.9-2.9-2.9s-2.9,1.3-2.9,2.9C65.3,170,66.6,171.3,68.3,171.3z"
		/>
</g>
<g>
	<path class="st0" d="M107.3,154.2c-11.7,0-21.2,9.5-21.2,21.2c0,11.7,9.5,21.2,21.2,21.2c11.7,0,21.2-9.5,21.2-21.2
		C128.5,163.7,119,154.2,107.3,154.2z M107.3,193.8c-10.2,0-18.4-8.3-18.4-18.4c0-10.2,8.3-18.4,18.4-18.4s18.4,8.3,18.4,18.4
		C125.8,185.5,117.5,193.8,107.3,193.8z"/>
	<path class="st0" d="M116,175.4c0,4.8-3.9,8.7-8.7,8.7s-8.7-3.9-8.7-8.7v-0.5h-2.8v0.5c0,6.3,5.1,11.4,11.4,11.4
		s11.4-5.1,11.4-11.4v-0.5H116V175.4z"/>
	<path class="st0" d="M100.8,171.3c1.6,0,2.9-1.3,2.9-2.9c0-1.6-1.3-2.9-2.9-2.9s-2.9,1.3-2.9,2.9C97.9,170,99.2,171.3,100.8,171.3z
		"/>
	<path class="st0" d="M113.6,171.3c1.6,0,2.9-1.3,2.9-2.9c0-1.6-1.3-2.9-2.9-2.9s-2.9,1.3-2.9,2.9C110.7,170,112,171.3,113.6,171.3z
		"/>
</g>
<g>
	<path class="st0" d="M152.7,154.2c-11.7,0-21.2,9.5-21.2,21.2c0,11.7,9.5,21.2,21.2,21.2c11.7,0,21.2-9.5,21.2-21.2
		C173.9,163.7,164.4,154.2,152.7,154.2z M152.7,193.8c-10.2,0-18.4-8.3-18.4-18.4c0-10.2,8.3-18.4,18.4-18.4
		c10.2,0,18.4,8.3,18.4,18.4C171.1,185.5,162.9,193.8,152.7,193.8z"/>
	<path class="st0" d="M161.4,175.4c0,4.8-3.9,8.7-8.7,8.7s-8.7-3.9-8.7-8.7v-0.5h-2.8v0.5c0,6.3,5.1,11.4,11.4,11.4
		s11.4-5.1,11.4-11.4v-0.5h-2.8V175.4z"/>
	<path class="st0" d="M146.2,171.3c1.6,0,2.9-1.3,2.9-2.9c0-1.6-1.3-2.9-2.9-2.9s-2.9,1.3-2.9,2.9
		C143.2,170,144.5,171.3,146.2,171.3z"/>
	<path class="st0" d="M159,171.3c1.6,0,2.9-1.3,2.9-2.9c0-1.6-1.3-2.9-2.9-2.9s-2.9,1.3-2.9,2.9C156.1,170,157.4,171.3,159,171.3z"
		/>
</g>
</svg>
