<svg id="Layer_1" data-name="Layer 1" xmlns="http://www.w3.org/2000/svg" viewBox="0 0 228.81 227.25"><defs><style>.cls-1{fill:#06a29d;}</style></defs><path class="cls-1" d="M98.6,84.94a31.79,31.79,0,1,0,31.79,31.78A31.82,31.82,0,0,0,98.6,84.94Zm0,59.31a27.53,27.53,0,1,1,27.53-27.53A27.55,27.55,0,0,1,98.6,144.25Z"/><path class="cls-1" d="M98.6,114.11a2.14,2.14,0,0,0-2.13,2.13v14.91a2.13,2.13,0,1,0,4.26,0V116.24A2.13,2.13,0,0,0,98.6,114.11Z"/><circle class="cls-1" cx="98.6" cy="103.47" r="3.19"/><path class="cls-1" d="M183.15,32.41H45.66a11,11,0,0,0-11,11V165.56a11,11,0,0,0,11,11h33.4a2.13,2.13,0,1,0,0-4.26H45.66a6.75,6.75,0,0,1-6.74-6.73V61.84h151V165.56a6.74,6.74,0,0,1-6.73,6.73H169.94L136.62,139a44.1,44.1,0,1,0-16.33,16.09l17.22,17.22H104.18a2.13,2.13,0,0,0,0,4.26h37.59L155.26,190a11.47,11.47,0,0,0,18.23-13.49h9.66a11,11,0,0,0,11-11V43.4A11,11,0,0,0,183.15,32.41ZM58.79,116.72A39.81,39.81,0,1,1,98.6,156.53,39.86,39.86,0,0,1,58.79,116.72Zm75.45,25.9,7.35,7.35-10,10.34L124,152.73A44.75,44.75,0,0,0,134.24,142.62ZM168.46,187a7.22,7.22,0,0,1-10.19,0l-23.71-23.71,10-10.34,23.86,23.86A7.21,7.21,0,0,1,168.46,187ZM38.92,56.73V43.4a6.75,6.75,0,0,1,6.74-6.74H183.15a6.74,6.74,0,0,1,6.73,6.74V56.73Z"/><circle class="cls-1" cx="92.22" cy="174.42" r="3.19"/><path class="cls-1" d="M152.94,77.49H142.4a2.56,2.56,0,0,0,0,5.11h10.54a2.56,2.56,0,1,0,0-5.11Z"/><path class="cls-1" d="M175.73,82.6a2.56,2.56,0,0,0,0-5.11H165.19a2.56,2.56,0,1,0,0,5.11Z"/><path class="cls-1" d="M146.24,95.59a2.55,2.55,0,0,0,2.55,2.55h26.94a2.56,2.56,0,0,0,0-5.11H148.79A2.56,2.56,0,0,0,146.24,95.59Z"/><path class="cls-1" d="M175.73,107.94h-9.27a2.56,2.56,0,0,0,0,5.11h9.27a2.56,2.56,0,0,0,0-5.11Z"/><path class="cls-1" d="M178.28,43.42H103.65a2.56,2.56,0,0,0,0,5.11h74.63a2.56,2.56,0,1,0,0-5.11Z"/><circle class="cls-1" cx="52.6" cy="45.98" r="3.19"/><circle class="cls-1" cx="67.3" cy="45.98" r="3.19"/><circle class="cls-1" cx="81.24" cy="45.98" r="3.19"/></svg>