<?xml version="1.0" encoding="utf-8"?>
<!-- Generator: Adobe Illustrator 24.3.0, SVG Export Plug-In . SVG Version: 6.00 Build 0)  -->
<svg version="1.1" id="Layer_1" xmlns="http://www.w3.org/2000/svg" xmlns:xlink="http://www.w3.org/1999/xlink" x="0px" y="0px"
	 viewBox="0 0 228.8 227.2" style="enable-background:new 0 0 228.8 227.2;" xml:space="preserve">
<style type="text/css">
	.st0{fill:none;stroke:#06A29D;stroke-width:3;stroke-miterlimit:10;}
</style>
<path class="st0" d="M76.3,150.9h28.3l61.3,0.2l0.8-2.7c4.5-16,12.8-45.6,14.2-50.6c16.7-9.4,22.6-30.6,13.1-47.3
	c-9.4-16.7-30.6-22.6-47.3-13.1c-16.5,9.3-22.5,30.2-13.4,46.8H75.1l-6.5-29.5H30.3v7.4h32.4l17.9,81.4h-4.2
	c-7.8,0-14.1,6.3-14.1,14.1c0,7.8,6.3,14.1,14.1,14.1h8.8c-4.6,5.5-3.8,13.7,1.7,18.3c5.5,4.6,13.7,3.8,18.3-1.7
	c4-4.8,4-11.8,0-16.6h29.4c-4.6,5.5-3.8,13.7,1.7,18.3s13.7,3.8,18.3-1.7c4-4.8,4-11.8,0-16.6h13.9v-7.4H76.3c-3.7,0-6.7-3-6.7-6.7
	S72.6,150.9,76.3,150.9L76.3,150.9z M163.8,40.2c15.1,0,27.3,12.2,27.3,27.3s-12.2,27.3-27.3,27.3s-27.3-12.2-27.3-27.3c0,0,0,0,0,0
	C136.5,52.5,148.7,40.2,163.8,40.2L163.8,40.2z M95.1,185.6c-3.1,0-5.6-2.5-5.6-5.6c0-3.1,2.5-5.6,5.6-5.6c3.1,0,5.6,2.5,5.6,5.6
	l0,0C100.7,183.1,98.2,185.5,95.1,185.6L95.1,185.6z M144.5,185.6c-3.1,0-5.6-2.5-5.6-5.6s2.5-5.6,5.6-5.6c3.1,0,5.6,2.5,5.6,5.6
	l0,0C150.1,183.1,147.6,185.5,144.5,185.6L144.5,185.6z"/>
<polygon class="st0" points="159.4,82.2 168.5,82.2 168.5,72.2 178.5,72.2 178.5,63.1 168.5,63.1 168.5,53.1 159.4,53.1 159.4,63.1 
	149.4,63.1 149.4,72.2 159.4,72.2 "/>
<path class="st0" d="M163.8,33c19.1,0,34.5,15.4,34.6,34.5s-15.4,34.5-34.5,34.6c-19.1,0-34.5-15.4-34.6-34.5c0,0,0,0,0,0
	C129.3,48.5,144.7,33,163.8,33L163.8,33z"/>
</svg>
