<?xml version="1.0" encoding="utf-8"?>
<!-- Generator: Adobe Illustrator 24.3.0, SVG Export Plug-In . SVG Version: 6.00 Build 0)  -->
<svg version="1.1" id="Layer_1" xmlns="http://www.w3.org/2000/svg" xmlns:xlink="http://www.w3.org/1999/xlink" x="0px" y="0px"
	 viewBox="0 0 228.8 227.2" style="enable-background:new 0 0 228.8 227.2;" xml:space="preserve">
<style type="text/css">
	.st0{fill:none;stroke:#06A29D;stroke-width:5;stroke-linecap:round;stroke-miterlimit:10;}
	.st1{fill:#06A29D;stroke:#06A29D;stroke-width:5;stroke-linecap:round;stroke-miterlimit:10;}
	.st2{fill:#06A29D;stroke:#06A29D;stroke-miterlimit:10;}
	.st3{fill:#06A29D;}
</style>
<path class="st0" d="M60.6,150.1H45c-2.7,0-4.9-2.2-4.9-4.9v-7.4"/>
<path class="st1" d="M148.9,150.1H91.2"/>
<path class="st0" d="M40.2,117.7V63c0-2.7,2.2-4.8,4.8-4.9h103.9c2.7,0,4.9,2.2,4.9,4.9v87.1"/>
<path class="st0" d="M154.2,84.9h30.1c2.7,0,4-2.2,3-3.9l-3.5-6.3c-1.2-2.1-3.4-3.4-6.5-3.4h-23.7"/>
<path class="st1" d="M159,150.1h-11.2"/>
<path class="st0" d="M153.8,107.2H187c7.7,0,13.5,4.9,14.8,11.5c0.2,1,0.3,1.9,0.3,2.9v25.1c0,1.8-1.5,3.3-3.3,3.3H190"/>
<line class="st0" x1="183.1" y1="84.9" x2="190.7" y2="107.2"/>
<path class="st0" d="M202.1,119.2h-12c-0.7,0-1.3,0.6-1.3,1.3v5.8c0,3.5,2.9,6.4,6.4,6.4c0,0,0,0,0,0h6.8"/>
<line class="st0" x1="70.5" y1="125.2" x2="33" y2="125.2"/>
<line class="st0" x1="55" y1="137.9" x2="26.7" y2="137.9"/>
<line class="st0" x1="98.2" y1="137.5" x2="142.6" y2="137.5"/>
<circle class="st0" cx="75.9" cy="152.4" r="15.3"/>
<circle class="st0" cx="174.6" cy="152.4" r="15.3"/>
<circle class="st2" cx="75.9" cy="152.4" r="7.9"/>
<circle class="st2" cx="174.6" cy="152.4" r="7.9"/>
<g>
	<g>
		<path class="st3" d="M97.2,81.9c-0.1-0.2-0.3-0.3-0.5-0.3c-0.4,0-0.7,0.2-0.9,0.5c-0.4,0.5-0.7,1-1,1.5v14.9c0,1,0.8,1.7,1.8,1.7
			h11c0.2,0,0.4,0,0.5-0.1l1.6-1.1c0.2-0.2,0.4-0.4,0.4-0.7v-1.8H98.6v-13L97.2,81.9z"/>
		<path class="st3" d="M129.3,67.9H96.4c0,0,0,0,0,0c-0.9,0-1.6,0.7-1.6,1.6V75l0.8-0.6c0.3-0.3,0.7-0.4,1.1-0.4
			c0.4,0,0.8,0.1,1,0.4l0.8,0.7v-3.5h28.8v35.8H87.2V90l9.5-10l9.5,9.9v5.9h3.8v-7.1L98.2,76.2c-0.4-0.4-0.9-0.7-1.5-0.7
			c-0.7,0-1.3,0.3-1.8,0.9L83.5,88.8l-0.1,0.1l0,22.3h46.1c0.9,0,1.5-0.7,1.5-1.6v-40C131,68.7,130.2,67.9,129.3,67.9z"/>
	</g>
	<path class="st3" d="M85,114.2v6.3h3.1v1.4h-4.9v-7.7H85z"/>
	<path class="st3" d="M93.7,118.6v-4.4h1.8v4.7c0.1,0.9-0.2,1.7-0.8,2.3c-0.7,0.6-1.6,0.8-2.4,0.8c-0.9,0.1-1.7-0.2-2.4-0.8
		c-0.6-0.6-0.9-1.4-0.8-2.2v-4.8h1.8v4.5c0,0.5,0.1,1,0.4,1.4c0.5,0.6,1.5,0.7,2.1,0.1c0,0,0.1-0.1,0.1-0.1
		C93.6,119.6,93.8,119.1,93.7,118.6z"/>
	<path class="st3" d="M103.4,114.2h2.7v7.7h-1.7v-6.1l-2,5.9h-1.6l-2-6v6.1H97v-7.7h2.8l1.8,5.3L103.4,114.2z"/>
	<path class="st3" d="M112.8,119.6c0,0.7-0.3,1.3-0.8,1.7c-0.7,0.4-1.4,0.7-2.2,0.6c-0.4,0-0.8,0-1.2-0.1c-0.4-0.1-0.7-0.2-1-0.2
		l0.1-1.5c0.2,0.1,0.5,0.2,0.8,0.3c0.4,0.1,0.8,0.2,1.2,0.2c0.3,0,0.6-0.1,0.9-0.2c0.2-0.1,0.4-0.4,0.4-0.6c0-0.2-0.1-0.4-0.3-0.6
		c-0.3-0.2-0.7-0.4-1.1-0.5c-0.6-0.2-1.1-0.5-1.6-0.8c-0.4-0.4-0.5-0.9-0.5-1.4c0-0.7,0.3-1.3,0.8-1.7c0.7-0.4,1.5-0.6,2.2-0.6
		c0.3,0,0.7,0,1,0.1c0.3,0,0.6,0.1,0.8,0.2l-0.1,1.4c-0.3-0.1-0.5-0.2-0.8-0.3c-0.3-0.1-0.6-0.1-0.9-0.1c-0.3,0-0.6,0.1-0.9,0.2
		c-0.2,0.1-0.4,0.4-0.3,0.6c0,0.2,0.1,0.4,0.3,0.5c0.4,0.2,0.8,0.4,1.3,0.5c0.6,0.2,1.1,0.5,1.6,0.9
		C112.7,118.6,112.8,119.1,112.8,119.6z"/>
	<path class="st3" d="M118.8,118.6v-4.4h1.8v4.7c0.1,0.9-0.2,1.7-0.8,2.3c-0.7,0.6-1.6,0.8-2.4,0.8c-0.9,0.1-1.7-0.2-2.4-0.8
		c-0.6-0.6-0.9-1.4-0.8-2.2v-4.8h1.8v4.5c0,0.5,0.1,1,0.4,1.4c0.5,0.6,1.5,0.7,2.1,0.1c0,0,0.1-0.1,0.1-0.1
		C118.7,119.6,118.8,119.1,118.8,118.6z"/>
	<path class="st3" d="M128.4,114.2h2.7v7.7h-1.7v-6.1l-2.1,5.9h-1.6l-2-6v6.1H122v-7.7h2.8l1.8,5.3L128.4,114.2z"/>
</g>
</svg>
