<svg xmlns="http://www.w3.org/2000/svg" viewBox="0 0 108.81 145.62"><defs><style>.cls-1{isolation:isolate;}.cls-10,.cls-12,.cls-13,.cls-15,.cls-2{fill:#02a29d;}.cls-11,.cls-12,.cls-13,.cls-14,.cls-2,.cls-4,.cls-5,.cls-6,.cls-7,.cls-8{stroke:#02a29d;}.cls-12,.cls-13,.cls-14,.cls-2{stroke-linejoin:round;}.cls-10,.cls-2{opacity:0.5;}.cls-11,.cls-3{fill:#fff;}.cls-14,.cls-4,.cls-5,.cls-6,.cls-7,.cls-8{fill:none;}.cls-11,.cls-4,.cls-5,.cls-6,.cls-7,.cls-8{stroke-miterlimit:6;}.cls-5{stroke-dasharray:5.1 5.1;}.cls-6{stroke-dasharray:5.08 5.08;}.cls-7{stroke-dasharray:5.1 5.1;}.cls-8{stroke-dasharray:5.08 5.08;}.cls-9{fill:#010101;opacity:0.15;mix-blend-mode:overlay;}.cls-11{stroke-dasharray:5;}.cls-12,.cls-13,.cls-14{stroke-linecap:round;}.cls-12,.cls-14{stroke-width:2px;}.cls-15{opacity:0.1;}</style></defs><g class="cls-1"><g id="Layer_1" data-name="Layer 1"><polygon class="cls-2" points="53.12 27.41 8.53 42.88 8.53 113.89 53.12 98.42 53.12 27.41"/><polygon class="cls-3" points="57.01 129.26 8.53 113.79 8.53 42.73 57.01 58.2 57.01 129.26"/><polyline class="cls-4" points="57.01 126.76 57.01 129.26 54.63 128.5"/><line class="cls-5" x1="49.77" y1="126.95" x2="13.34" y2="115.32"/><polyline class="cls-4" points="10.92 114.55 8.53 113.79 8.53 111.29"/><line class="cls-6" x1="8.53" y1="106.2" x2="8.53" y2="47.77"/><polyline class="cls-4" points="8.53 45.23 8.53 42.73 10.92 43.49"/><line class="cls-7" x1="15.77" y1="45.04" x2="52.2" y2="56.67"/><polyline class="cls-4" points="54.63 57.45 57.01 58.2 57.01 60.7"/><line class="cls-8" x1="57.01" y1="65.79" x2="57.01" y2="124.22"/><polygon class="cls-9" points="8.53 52.62 8.53 73.23 51.12 86.82 57.01 68.09 57.01 58.2 10.56 46.18 8.53 52.62"/><polygon class="cls-10" points="101.62 42.72 101.62 42.83 101.45 42.78 101.62 42.72"/><polygon class="cls-10" points="101.62 42.72 101.62 42.83 101.45 42.78 101.62 42.72"/><polygon class="cls-11" points="49.1 83.38 0.63 67.9 8.53 42.73 57.01 58.2 49.1 83.38"/><polygon class="cls-9" points="57.01 58.2 57.01 67.72 62.43 85.25 101.62 71.66 101.62 42.72 101.62 42.72 57.01 58.2"/><polygon class="cls-2" points="101.16 42.85 98.68 43.71 56.96 58.19 53.12 56.96 53.12 27.51 100.93 42.78 101.16 42.85"/><polygon class="cls-10" points="57.01 129.26 101.62 113.79 101.62 42.73 57.01 58.2 57.01 129.26"/><polygon class="cls-10" points="64.2 82 108.81 66.53 101.62 42.73 57.01 58.2 64.2 82"/><line class="cls-12" x1="43.68" y1="4.19" x2="48.61" y2="9.43"/><line class="cls-12" x1="48.76" y1="4.35" x2="43.52" y2="9.28"/><line class="cls-13" x1="60.08" y1="4.71" x2="60.2" y2="0.5"/><line class="cls-13" x1="58.03" y1="2.54" x2="62.25" y2="2.67"/><circle class="cls-14" cx="59.08" cy="16.03" r="3.73"/><ellipse class="cls-15" cx="53.12" cy="142.25" rx="43.75" ry="3.38"/><line class="cls-13" x1="45.82" y1="21.1" x2="50.18" y2="25.74"/><line class="cls-13" x1="50.32" y1="21.24" x2="45.68" y2="25.61"/></g></g></svg>